# xmcd CD database file
#
# Track frame offsets:
#	150
#	30492
#	74369
#	112306
#	146363
#	196145
#	231842
#
# Disc length: 3751 seconds
#
# Revision: 0
# Processed by: cddbd v1.5.2PL0 Copyright (c) Steve Scherf et al.
# Submitted via: CDex 1.70beta2
#
DISCID=5f0ea507
DTITLE=Phil Woods Quintet - The Jazz Masters
DYEAR=1986
DGENRE=Jazz
TTITLE0=111-44 (O. Nelson)
TTITLE1=Another Jones (H. Galper)
TTITLE2=My Azure (Bill Mays)
TTITLE3=Serenade In Blue (H. Warren/M. Gordon)
TTITLE4=Tenor Of The Times (Roccisano)
TTITLE5=Times Mirror (T. Harrell)
TTITLE6=Ya Know (Emley)
EXTD=YEAR: 1986
EXTT0=
EXTT1=
EXTT2=
EXTT3=
EXTT4=
EXTT5=
EXTT6=
PLAYORDER=
